# xmcd
#
# Track frame offsets:
#	150
#	7059
#	24207
#	35620
#	41875
#	51042
#	61191
#	74204
#	86739
#	98782
#	110540
#	118154
#	131847
#	143716
#	154947
#	166147
#	179064
#	194726
#	206113
#	212968
#	222667
#
# Disc length: 3123 seconds
#
# Revision: 1
# Processed by: cddbd v1.5.2PL0 Copyright (c) Steve Scherf et al.
# Submitted via: audiograbber 1.83.01
#
DISCID=520c3115
DTITLE=The Everett Brothers - Tribute To Randall Everett
DYEAR=2008
DGENRE=Bluegrass
TTITLE0=All Around The Water Tank
TTITLE1=The Violet and The Rose
TTITLE2=Handsome Molly
TTITLE3=How Many Here For The First Time
TTITLE4=Standing On The Mountain
TTITLE5=The Cabin On The Hill
TTITLE6=I Wish You Knew
TTITLE7=My Home In Louisiana
TTITLE8=It's A Lonesome Road
TTITLE9=The Wabash Cannonball
TTITLE10=A Word From Our Sponsors
TTITLE11=Where Did Our Young Years Go?
TTITLE12=Don't Say Goodbye If You Love Me
TTITLE13=That Was Before I Met You
TTITLE14=You Can Feel It In Your Soul
TTITLE15=Let The Church Roll On
TTITLE16=He Will Set Your Fields On Fire
TTITLE17=Matthew 24
TTITLE18=Martha White
TTITLE19=Salty Dog
TTITLE20=The Good Things Outweigh The Bad
EXTD=
EXTT0=
EXTT1=
EXTT2=
EXTT3=
EXTT4=
EXTT5=
EXTT6=
EXTT7=
EXTT8=
EXTT9=
EXTT10=
EXTT11=
EXTT12=
EXTT13=
EXTT14=
EXTT15=
EXTT16=
EXTT17=
EXTT18=
EXTT19=
EXTT20=
PLAYORDER=
